<?xml version="1.0" encoding="UTF-8"?>
<svg width="18px" height="18px" viewBox="0 0 18 18" version="1.1" xmlns="http://www.w3.org/2000/svg" xmlns:xlink="http://www.w3.org/1999/xlink">
    <!-- Generator: Sketch 45.2 (43514) - http://www.bohemiancoding.com/sketch -->
    <title>archive</title>
    <desc>Created with Sketch.</desc>
    <defs></defs>
    <g id="Material-Design-Symbols" stroke="none" stroke-width="1" fill="none" fill-rule="evenodd">
        <g id="Material/Icons-black/archive" transform="translate(-3.000000, -3.000000)" fill="#9B9B9B">
            <path d="M12,17.5 L6.5,12 L10,12 L10,10 L14.001,10 L14.001,12 L17.5,12 L12,17.5 M5.124,5 L5.938,4 L17.938,4 L18.875,5 L5.124,5 M18,3 L6,3 C5.534,3 5.118,3.213 4.843,3.546 L3.457,5.228 C3.172,5.573 3,6.016 3,6.5 L3,18.999 C3,20.104 3.895,21 5.001,21 L19,21 C20.105,21 21,20.104 21,18.999 L21,6.5 C21,6.016 20.828,5.573 20.543,5.228 L19.158,3.546 C18.883,3.213 18.465,3 18,3" id="archive"></path>
        </g>
    </g>
</svg>